<svg xmlns="http://www.w3.org/2000/svg" fill="#808080" viewBox="0 0 300 300" height="57" width="57"><path d="M150 0C67.2 0 0 67.2 0 150c0 82.8 67.2 150 150 150s150-67.2 150-150C300 67.2 232.8 0 150 0zM150 52.7l88.8 55.4H61.2L150 52.7zM239.9 196.4h0c0 8.9-7.2 16.1-16.1 16.1H76.2c-8.9 0-16.1-7.2-16.1-16.1v-84.9c0-0.9 0.1-1.9 0.3-2.7l84.8 52.9c0.1 0.1 0.2 0.1 0.3 0.2 0.1 0.1 0.2 0.1 0.3 0.2 0.6 0.3 1.2 0.6 1.8 0.7 0.1 0 0.1 0 0.2 0 0.7 0.2 1.4 0.3 2.1 0.3h0c0 0 0 0 0 0 0.7 0 1.4-0.1 2.1-0.3 0.1 0 0.1 0 0.2 0 0.6-0.2 1.2-0.4 1.8-0.7 0.1-0.1 0.2-0.1 0.3-0.2 0.1-0.1 0.2-0.1 0.3-0.2l84.8-52.9c0.2 0.9 0.3 1.8 0.3 2.7V196.4z"/></svg>