<svg xmlns="http://www.w3.org/2000/svg" height="57" viewBox="-1163 1657.7 56.7 56.7" width="57" fill="#808080"><path d="M-1134.7 1662.9c-13.6 0-24.6 11-24.6 24.6 0 10.9 7.1 20.1 16.8 23.4 1.2 0.2 1.7-0.5 1.7-1.2 0-0.6 0-2.5 0-4.6 -6.9 1.5-8.3-2.9-8.3-2.9 -1.1-2.8-2.7-3.6-2.7-3.6 -2.2-1.5 0.2-1.5 0.2-1.5 2.5 0.2 3.8 2.5 3.8 2.5 2.2 3.8 5.8 2.7 7.2 2 0.2-1.6 0.9-2.7 1.6-3.3 -5.5-0.6-11.2-2.7-11.2-12.2 0-2.7 1-4.9 2.5-6.6 -0.3-0.6-1.1-3.1 0.2-6.5 0 0 2.1-0.7 6.8 2.5 2-0.5 4.1-0.8 6.2-0.8 2.1 0 4.2 0.3 6.2 0.8 4.7-3.2 6.8-2.5 6.8-2.5 1.3 3.4 0.5 5.9 0.2 6.5 1.6 1.7 2.5 3.9 2.5 6.6 0 9.5-5.8 11.5-11.2 12.2 0.9 0.8 1.7 2.3 1.7 4.6 0 3.3 0 5.9 0 6.8 0 0.7 0.4 1.4 1.7 1.2 9.8-3.3 16.8-12.5 16.8-23.4C-1110 1673.9-1121.1 1662.9-1134.7 1662.9z"/><path d="M-1150 1698.3c-0.1 0.1-0.2 0.2-0.4 0.1 -0.2-0.1-0.3-0.2-0.2-0.4 0.1-0.1 0.2-0.2 0.4-0.1C-1150 1698-1149.9 1698.2-1150 1698.3L-1150 1698.3zM-1150.3 1698.1"/><path d="M-1149 1699.4c-0.1 0.1-0.3 0.1-0.5-0.1 -0.2-0.2-0.2-0.4-0.1-0.5 0.1-0.1 0.3-0.1 0.5 0.1C-1148.9 1699.1-1148.8 1699.3-1149 1699.4L-1149 1699.4zM-1149.2 1699.1"/><path d="M-1148 1700.8c-0.2 0.1-0.4 0-0.6-0.2 -0.2-0.2-0.2-0.5 0-0.6 0.2-0.1 0.4 0 0.6 0.2C-1147.8 1700.4-1147.8 1700.7-1148 1700.8L-1148 1700.8zM-1148 1700.8"/><path d="M-1146.7 1702.2c-0.1 0.1-0.4 0.1-0.6-0.1 -0.2-0.2-0.3-0.5-0.1-0.6 0.1-0.1 0.4-0.1 0.6 0.1C-1146.6 1701.8-1146.5 1702-1146.7 1702.2L-1146.7 1702.2zM-1146.7 1702.2"/><path d="M-1144.8 1703c-0.1 0.2-0.3 0.3-0.6 0.2 -0.3-0.1-0.5-0.3-0.4-0.5 0.1-0.2 0.3-0.3 0.6-0.2C-1145 1702.6-1144.8 1702.8-1144.8 1703L-1144.8 1703zM-1144.8 1703"/><path d="M-1142.8 1703.1c0 0.2-0.2 0.4-0.5 0.4 -0.3 0-0.5-0.2-0.5-0.4 0-0.2 0.2-0.4 0.5-0.4C-1143.1 1702.8-1142.8 1702.9-1142.8 1703.1L-1142.8 1703.1zM-1142.8 1703.1"/><path d="M-1140.9 1702.8c0 0.2-0.2 0.4-0.5 0.5 -0.3 0.1-0.6-0.1-0.6-0.3 0-0.2 0.2-0.4 0.5-0.5C-1141.2 1702.5-1141 1702.6-1140.9 1702.8L-1140.9 1702.8zM-1140.9 1702.8"/></svg>