<svg xmlns="http://www.w3.org/2000/svg" height="57" viewBox="-1163 1657.7 56.7 56.7" width="57" fill="#808080"><path d="M-1134.7 1662.9c-13.6 0-24.6 11-24.6 24.6s11 24.6 24.6 24.6c13.6 0 24.6-11 24.6-24.6S-1121.1 1662.9-1134.7 1662.9zM-1138.2 1680.3l10.6 6.2 -1.3 2.3 -10.6-6.2L-1138.2 1680.3zM-1141 1686.3l11.9 3.2 -0.7 2.5 -11.9-3.2L-1141 1686.3zM-1142.2 1691.8l12.2 1.1 -0.2 2.6 -12.2-1.1L-1142.2 1691.8zM-1130.2 1696.3l0 2.6 -12.3 0 0-2.6L-1130.2 1696.3zM-1126 1702.5c0 0 0 0.6 0 0.6v0h-19.7c0 0-0.6 0-0.6 0h0v-12.8h2.1v10.7h16.1v-10.7h2.1V1702.5zM-1127.2 1686.2l-6.9-10.2 2.2-1.5 6.9 10.2L-1127.2 1686.2zM-1124.5 1684.5l-2.1-12.1 2.6-0.4 2.1 12.1L-1124.5 1684.5z"/></svg>